<?xml version="1.0" encoding="utf-8"?>
<!-- Generator: Adobe Illustrator 26.0.1, SVG Export Plug-In . SVG Version: 6.00 Build 0)  -->
<svg version="1.1" xmlns="http://www.w3.org/2000/svg" xmlns:xlink="http://www.w3.org/1999/xlink" x="0px" y="0px"
	 viewBox="0 0 1080 1080" style="enable-background:new 0 0 1080 1080;" xml:space="preserve">
<style type="text/css">
	.st0{display:none;}
	.st1{display:inline;fill:#1B1D1C;}
	.st2{fill:#1B1D1C;}
	.st3{display:inline;}
	.st4{fill:none;stroke:#1B1D1C;stroke-miterlimit:10;}
</style>
<g id="fundo" class="st0">
	<rect class="st1" width="1080" height="1080"/>
</g>
<g id="logo">
	<rect x="135" y="135" class="st2" width="135" height="810"/>
	<rect x="135" y="811.3" class="st2" width="810" height="133.7"/>
	<rect x="405" y="135" class="st2" width="133.33" height="743.15"/>
	<rect x="453.89" y="135" class="st2" width="491.11" height="137.41"/>
	<rect x="405" y="472.5" class="st2" width="540" height="135"/>
</g>
<g id="grid" class="st0">
	<g class="st3">
		<g>
			<rect x="135" y="945" class="st4" width="135" height="135"/>
			<rect y="945" class="st4" width="135" height="135"/>
			<rect x="405" y="945" class="st4" width="135" height="135"/>
			<rect x="270" y="945" class="st4" width="135" height="135"/>
			<rect x="675" y="945" class="st4" width="135" height="135"/>
			<rect x="540" y="945" class="st4" width="135" height="135"/>
			<rect x="945" y="945" class="st4" width="135" height="135"/>
			<rect x="810" y="945" class="st4" width="135" height="135"/>
		</g>
		<g>
			<rect x="135" y="675" class="st4" width="135" height="135"/>
			<rect y="675" class="st4" width="135" height="135"/>
			<rect x="405" y="675" class="st4" width="135" height="135"/>
			<rect x="270" y="675" class="st4" width="135" height="135"/>
			<rect x="675" y="675" class="st4" width="135" height="135"/>
			<rect x="540" y="675" class="st4" width="135" height="135"/>
			<rect x="945" y="675" class="st4" width="135" height="135"/>
			<rect x="810" y="675" class="st4" width="135" height="135"/>
		</g>
		<g>
			<rect x="135" y="405" class="st4" width="135" height="135"/>
			<rect y="405" class="st4" width="135" height="135"/>
			<rect x="405" y="405" class="st4" width="135" height="135"/>
			<rect x="270" y="405" class="st4" width="135" height="135"/>
			<rect x="675" y="405" class="st4" width="135" height="135"/>
			<rect x="540" y="405" class="st4" width="135" height="135"/>
			<rect x="945" y="405" class="st4" width="135" height="135"/>
			<rect x="810" y="405" class="st4" width="135" height="135"/>
		</g>
		<g>
			<rect x="135" y="135" class="st4" width="135" height="135"/>
			<rect y="135" class="st4" width="135" height="135"/>
			<rect x="405" y="135" class="st4" width="135" height="135"/>
			<rect x="270" y="135" class="st4" width="135" height="135"/>
			<rect x="675" y="135" class="st4" width="135" height="135"/>
			<rect x="540" y="135" class="st4" width="135" height="135"/>
			<rect x="945" y="135" class="st4" width="135" height="135"/>
			<rect x="810" y="135" class="st4" width="135" height="135"/>
		</g>
		<g>
			<rect x="135" y="810" class="st4" width="135" height="135"/>
			<rect y="810" class="st4" width="135" height="135"/>
			<rect x="405" y="810" class="st4" width="135" height="135"/>
			<rect x="270" y="810" class="st4" width="135" height="135"/>
			<rect x="675" y="810" class="st4" width="135" height="135"/>
			<rect x="540" y="810" class="st4" width="135" height="135"/>
			<rect x="945" y="810" class="st4" width="135" height="135"/>
			<rect x="810" y="810" class="st4" width="135" height="135"/>
		</g>
		<g>
			<rect x="135" y="540" class="st4" width="135" height="135"/>
			<rect y="540" class="st4" width="135" height="135"/>
			<rect x="405" y="540" class="st4" width="135" height="135"/>
			<rect x="270" y="540" class="st4" width="135" height="135"/>
			<rect x="675" y="540" class="st4" width="135" height="135"/>
			<rect x="540" y="540" class="st4" width="135" height="135"/>
			<rect x="945" y="540" class="st4" width="135" height="135"/>
			<rect x="810" y="540" class="st4" width="135" height="135"/>
		</g>
		<g>
			<rect x="135" y="270" class="st4" width="135" height="135"/>
			<rect y="270" class="st4" width="135" height="135"/>
			<rect x="405" y="270" class="st4" width="135" height="135"/>
			<rect x="270" y="270" class="st4" width="135" height="135"/>
			<rect x="675" y="270" class="st4" width="135" height="135"/>
			<rect x="540" y="270" class="st4" width="135" height="135"/>
			<rect x="945" y="270" class="st4" width="135" height="135"/>
			<rect x="810" y="270" class="st4" width="135" height="135"/>
		</g>
		<g>
			<rect x="135" class="st4" width="135" height="135"/>
			<rect class="st4" width="135" height="135"/>
			<rect x="405" class="st4" width="135" height="135"/>
			<rect x="270" class="st4" width="135" height="135"/>
			<rect x="675" class="st4" width="135" height="135"/>
			<rect x="540" class="st4" width="135" height="135"/>
			<rect x="945" class="st4" width="135" height="135"/>
			<rect x="810" class="st4" width="135" height="135"/>
		</g>
	</g>
</g>
</svg>
